<svg width="495" height="120" viewBox="0 0 495 120" fill="none" xmlns="http://www.w3.org/2000/svg">
<path d="M0 21C0 9.40202 9.40205 0 21.0001 0H99.0003C110.598 0 120 9.40202 120 21V99C120 110.598 110.598 120 99.0003 120H21.0001C9.40205 120 0 110.598 0 99V21Z" fill="#6E76F1"/>
<path fill-rule="evenodd" clip-rule="evenodd" d="M97.6125 41.1262H85.6456C79.8216 33.4003 70.5093 28.3937 60.0263 28.3937C42.3977 28.3937 28.0865 42.5486 28.0865 59.9815C28.0865 77.4159 42.3977 91.5694 60.0263 91.5694C70.5093 91.5694 79.8216 86.5628 85.6456 78.8383H97.6125C90.6487 92.3766 76.425 101.66 60.0263 101.66C36.7669 101.66 17.8842 82.9856 17.8842 59.9815C17.8842 36.9789 36.7669 18.3042 60.0263 18.3042C76.425 18.3042 90.6487 27.5879 97.6125 41.1262V41.1262ZM70.0551 61.8428C69.1707 66.5249 65.0139 70.0725 60.0263 70.0725C54.3941 70.0725 49.8226 65.5512 49.8226 59.9815C49.8226 54.4133 54.3941 49.8921 60.0263 49.8921C65.0139 49.8921 69.1707 53.4396 70.0551 58.1217H120V61.8428H70.0551Z" fill="white"/>
<path d="M167.169 84C162.791 84 158.826 83.0417 155.275 81.125C151.764 79.1667 148.997 76.4792 146.974 73.0625C144.991 69.6458 144 65.7917 144 61.5C144 57.2083 145.012 53.3542 147.035 49.9375C149.059 46.5208 151.826 43.8542 155.337 41.9375C158.888 39.9792 162.853 39 167.231 39C170.782 39 174.024 39.625 176.956 40.875C179.889 42.125 182.367 43.9375 184.39 46.3125L179.187 51.25C176.048 47.8333 172.186 46.125 167.602 46.125C164.629 46.125 161.965 46.7917 159.611 48.125C157.257 49.4167 155.419 51.2292 154.098 53.5625C152.776 55.8958 152.115 58.5417 152.115 61.5C152.115 64.4583 152.776 67.1042 154.098 69.4375C155.419 71.7708 157.257 73.6042 159.611 74.9375C161.965 76.2292 164.629 76.875 167.602 76.875C172.186 76.875 176.048 75.1458 179.187 71.6875L184.39 76.6875C182.367 79.0625 179.868 80.875 176.895 82.125C173.962 83.375 170.72 84 167.169 84Z" fill="#363636"/>
<path d="M191.363 37H199.107V83.375H191.363V37Z" fill="#363636"/>
<path d="M240.368 66.875C240.368 67.4167 240.327 68.1875 240.244 69.1875H214.288C214.742 71.6458 215.919 73.6042 217.819 75.0625C219.76 76.4792 222.155 77.1875 225.005 77.1875C228.639 77.1875 231.634 75.9792 233.988 73.5625L238.138 78.375C236.651 80.1667 234.772 81.5208 232.501 82.4375C230.229 83.3542 227.669 83.8125 224.819 83.8125C221.185 83.8125 217.984 83.0833 215.217 81.625C212.45 80.1667 210.303 78.1458 208.775 75.5625C207.288 72.9375 206.545 69.9792 206.545 66.6875C206.545 63.4375 207.267 60.5208 208.713 57.9375C210.199 55.3125 212.244 53.2708 214.846 51.8125C217.447 50.3542 220.38 49.625 223.642 49.625C226.864 49.625 229.734 50.3542 232.253 51.8125C234.814 53.2292 236.796 55.25 238.2 57.875C239.646 60.4583 240.368 63.4583 240.368 66.875ZM223.642 55.875C221.164 55.875 219.058 56.625 217.324 58.125C215.63 59.5833 214.598 61.5417 214.226 64H232.996C232.666 61.5833 231.654 59.625 229.961 58.125C228.268 56.625 226.161 55.875 223.642 55.875Z" fill="#363636"/>
<path d="M278.176 50L263.989 83.375H255.998L241.812 50H249.865L260.149 74.75L270.742 50H278.176Z" fill="#363636"/>
<path d="M313.206 66.875C313.206 67.4167 313.165 68.1875 313.082 69.1875H287.126C287.58 71.6458 288.757 73.6042 290.657 75.0625C292.598 76.4792 294.993 77.1875 297.843 77.1875C301.477 77.1875 304.471 75.9792 306.825 73.5625L310.976 78.375C309.489 80.1667 307.61 81.5208 305.338 82.4375C303.067 83.3542 300.506 83.8125 297.657 83.8125C294.023 83.8125 290.822 83.0833 288.055 81.625C285.288 80.1667 283.14 78.1458 281.612 75.5625C280.126 72.9375 279.382 69.9792 279.382 66.6875C279.382 63.4375 280.105 60.5208 281.55 57.9375C283.037 55.3125 285.081 53.2708 287.683 51.8125C290.285 50.3542 293.217 49.625 296.48 49.625C299.701 49.625 302.571 50.3542 305.091 51.8125C307.651 53.2292 309.634 55.25 311.038 57.875C312.483 60.4583 313.206 63.4583 313.206 66.875ZM296.48 55.875C294.002 55.875 291.896 56.625 290.161 58.125C288.468 59.5833 287.435 61.5417 287.064 64H305.834C305.504 61.5833 304.492 59.625 302.799 58.125C301.105 56.625 298.999 55.875 296.48 55.875Z" fill="#363636"/>
<path d="M328.016 54.875C330.246 51.375 334.169 49.625 339.786 49.625V57.0625C339.125 56.9375 338.526 56.875 337.99 56.875C334.975 56.875 332.621 57.7708 330.927 59.5625C329.234 61.3125 328.388 63.8542 328.388 67.1875V83.375H320.644V50H328.016V54.875Z" fill="#363636"/>
<path d="M346.355 37H354.099V83.375H346.355V37Z" fill="#363636"/>
<path d="M376.899 49.625C381.773 49.625 385.489 50.8125 388.05 53.1875C390.652 55.5208 391.953 59.0625 391.953 63.8125V83.375H384.643V79.3125C383.693 80.7708 382.33 81.8958 380.554 82.6875C378.82 83.4375 376.713 83.8125 374.236 83.8125C371.758 83.8125 369.589 83.3958 367.731 82.5625C365.873 81.6875 364.427 80.5 363.395 79C362.403 77.4583 361.908 75.7292 361.908 73.8125C361.908 70.8125 363.002 68.4167 365.191 66.625C367.421 64.7917 370.911 63.875 375.66 63.875H384.209V63.375C384.209 61.0417 383.507 59.25 382.103 58C380.74 56.75 378.696 56.125 375.97 56.125C374.112 56.125 372.274 56.4167 370.457 57C368.681 57.5833 367.173 58.3958 365.934 59.4375L362.899 53.75C364.634 52.4167 366.719 51.3958 369.156 50.6875C371.592 49.9792 374.174 49.625 376.899 49.625ZM375.846 78.125C377.787 78.125 379.501 77.6875 380.988 76.8125C382.516 75.8958 383.59 74.6042 384.209 72.9375V69.0625H376.218C371.758 69.0625 369.527 70.5417 369.527 73.5C369.527 74.9167 370.085 76.0417 371.2 76.875C372.315 77.7083 373.864 78.125 375.846 78.125Z" fill="#363636"/>
<path d="M420.661 49.625C424.832 49.625 428.177 50.8542 430.697 53.3125C433.216 55.7708 434.475 59.4167 434.475 64.25V83.375H426.732V65.25C426.732 62.3333 426.05 60.1458 424.688 58.6875C423.325 57.1875 421.384 56.4375 418.864 56.4375C416.015 56.4375 413.764 57.3125 412.112 59.0625C410.46 60.7708 409.634 63.25 409.634 66.5V83.375H401.891V50H409.262V54.3125C410.543 52.7708 412.153 51.6042 414.094 50.8125C416.035 50.0208 418.224 49.625 420.661 49.625Z" fill="#363636"/>
<path d="M477 37V83.375H469.566V79.0625C468.286 80.6458 466.696 81.8333 464.796 82.625C462.938 83.4167 460.873 83.8125 458.601 83.8125C455.421 83.8125 452.551 83.1042 449.991 81.6875C447.471 80.2708 445.489 78.2708 444.044 75.6875C442.598 73.0625 441.875 70.0625 441.875 66.6875C441.875 63.3125 442.598 60.3333 444.044 57.75C445.489 55.1667 447.471 53.1667 449.991 51.75C452.551 50.3333 455.421 49.625 458.601 49.625C460.79 49.625 462.793 50 464.61 50.75C466.428 51.5 467.976 52.625 469.256 54.125V37H477ZM459.531 77.125C461.389 77.125 463.062 76.7083 464.548 75.875C466.035 75 467.212 73.7708 468.079 72.1875C468.947 70.6042 469.38 68.7708 469.38 66.6875C469.38 64.6042 468.947 62.7708 468.079 61.1875C467.212 59.6042 466.035 58.3958 464.548 57.5625C463.062 56.6875 461.389 56.25 459.531 56.25C457.672 56.25 456 56.6875 454.513 57.5625C453.026 58.3958 451.849 59.6042 450.982 61.1875C450.114 62.7708 449.681 64.6042 449.681 66.6875C449.681 68.7708 450.114 70.6042 450.982 72.1875C451.849 73.7708 453.026 75 454.513 75.875C456 76.7083 457.672 77.125 459.531 77.125Z" fill="#363636"/>
</svg>
